#Comment line ignore any data following # character 
#Hierarchical Translation and Rotation (.htr) file 
[Header]	
#Header keywords are followed by a single value 
FileType HTR		#Single word string
DataType HTRS		#Translation followed by rotation and scale data
FileVersion 1		#integer
NumSegments 23		#integer
NumFrames 6		#integer
DataFrameRate 30		#integer, data frame rate in this file
EulerRotationOrder ZYX
CalibrationUnits mm
RotationUnits Degrees
GlobalAxisofGravity Y
BoneLengthAxis Y
ScaleFactor 1.00
[SegmentNames&Hierarchy]
#CHILD	PARENT
MASTER GLOBAL
weapon MASTER
arm_lock_bottom_part1 weapon
arm_lock_bottom_part2 weapon
arm_lock_bottom_part3 weapon
arm_lock_bottom_part4 weapon
arm_lock_top_part1 weapon
arm_lock_top_part2 weapon
arm_lock_top_part3 weapon
front_lower_left_part1 weapon
front_lower_right_part1 weapon
front_top_left_part weapon
front_top_right_part1 weapon
scope_part1 weapon
scope_part2 weapon
front_lower_left_part2 front_lower_left_part1
front_lower_left_part3 front_lower_left_part2
front_lower_right_part2 front_lower_right_part1
front_lower_right_part3 front_lower_right_part2
front_top_left_part2 front_top_left_part
front_top_left_part3 front_top_left_part2
front_top_right_part2 front_top_right_part1
front_top_right_part3 front_top_right_part2
[BasePosition]
#SegmentName Tx, Ty, Tz, Rx, Ry, Rz, BoneLength
MASTER 0.000000 0.000000 0.000000 -90.000000 0.000000 0.000000 10.000000 
weapon 0.000000 0.000000 0.000000 0.000000 0.000000 0.000000 10.000000 
arm_lock_bottom_part1 0.000000 0.000000 0.000000 0.000000 0.000000 0.000000 10.000000 
arm_lock_bottom_part2 0.000000 0.000000 0.000000 0.000000 0.000000 0.000000 10.000000 
arm_lock_bottom_part3 0.000000 0.000000 0.000000 0.000000 0.000000 0.000000 10.000000 
arm_lock_bottom_part4 0.000000 0.000000 0.000000 0.000000 0.000000 0.000000 10.000000 
arm_lock_top_part1 0.000000 0.000000 0.000000 0.000000 0.000000 0.000000 10.000000 
arm_lock_top_part2 0.000000 0.000000 0.000000 0.000000 0.000000 0.000000 10.000000 
arm_lock_top_part3 0.000000 0.000000 0.000000 0.000000 0.000000 0.000000 10.000000 
front_lower_left_part1 0.000000 0.000000 0.000000 0.000000 0.000000 0.000000 10.000000 
front_lower_right_part1 0.000000 0.000000 0.000000 0.000000 0.000000 0.000000 10.000000 
front_top_left_part 0.000000 0.000000 0.000000 0.000000 0.000000 0.000000 10.000000 
front_top_right_part1 0.000000 0.000000 0.000000 0.000000 0.000000 0.000000 10.000000 
scope_part1 0.000000 0.000000 0.000000 0.000000 0.000000 0.000000 10.000000 
scope_part2 0.000000 0.000000 0.000000 0.000000 0.000000 0.000000 10.000000 
front_lower_left_part2 0.000000 0.000000 0.000000 0.000000 0.000000 0.000000 10.000000 
front_lower_left_part3 0.000000 0.000000 0.000000 0.000000 0.000000 0.000000 10.000000 
front_lower_right_part2 0.000000 0.000000 0.000000 0.000000 0.000000 0.000000 10.000000 
front_lower_right_part3 0.000000 0.000000 0.000000 0.000000 0.000000 0.000000 10.000000 
front_top_left_part2 0.000000 0.000000 0.000000 0.000000 0.000000 0.000000 10.000000 
front_top_left_part3 0.000000 0.000000 0.000000 0.000000 0.000000 0.000000 10.000000 
front_top_right_part2 0.000000 0.000000 0.000000 0.000000 0.000000 0.000000 10.000000 
front_top_right_part3 0.000000 0.000000 0.000000 0.000000 0.000000 0.000000 10.000000 
#Beginning of Data. Separated by tabs
#Fr	Tx	Ty	Tz	Rx	Ry	Rz	SF
[MASTER]
15 0.000000 -0.000019 0.000002 0.002458 -0.000000 0.000000 0.000019
16 0.000000 -0.000019 0.000002 0.002458 -0.000000 0.000000 0.000019
17 0.000000 -0.000019 0.000002 0.002458 -0.000000 0.000000 0.000019
18 0.000000 -0.000019 0.000002 0.002458 -0.000000 0.000000 0.000019
19 0.000000 -0.000019 0.000002 0.002458 -0.000000 0.000000 0.000019
20 0.000000 -0.000019 0.000002 0.002458 -0.000000 0.000000 0.000019
[weapon]
15 10.182476 -168.977844 -13.084106 -0.002473 -0.000000 -0.000020 169.789246
16 10.182457 -168.977844 -13.084106 -0.002473 -0.000000 -0.000020 169.789246
17 10.182476 -168.977844 -13.084106 -0.002473 -0.000000 -0.000020 169.789246
18 10.182457 -168.977844 -13.084106 -0.002473 -0.000000 -0.000020 169.789246
19 10.182457 -168.977844 -13.084106 -0.002473 -0.000000 -0.000020 169.789246
20 10.182476 -168.977844 -13.084106 -0.002473 -0.000000 -0.000020 169.789246
[arm_lock_bottom_part1]
15 -48.820000 98.566170 -83.498993 179.999985 0.000004 9.388626 138.096939
16 -48.820000 98.566208 -83.498993 179.999985 0.000004 9.388626 138.096970
17 -48.820000 98.566170 -83.498993 179.999985 0.000004 9.388626 138.096939
18 -48.820000 98.566208 -83.498993 179.999985 0.000004 9.388626 138.096970
19 -48.820000 98.566208 -83.498993 179.999985 0.000004 9.388626 138.096970
20 -48.820000 98.566170 -83.498993 179.999985 0.000004 9.388626 138.096939
[arm_lock_bottom_part2]
15 -49.022766 58.781967 -78.526535 -179.999985 -0.000001 6.576765 109.658417
16 -49.022766 58.782005 -78.526535 -179.999985 -0.000001 6.576765 109.658440
17 -49.022766 58.781967 -78.526535 -179.999985 -0.000001 6.576765 109.658417
18 -49.022766 58.782005 -78.526535 -179.999985 -0.000001 6.576765 109.658440
19 -49.022766 58.782005 -78.526535 -179.999985 -0.000001 6.576765 109.658440
20 -49.022766 58.781967 -78.526535 -179.999985 -0.000001 6.576765 109.658417
[arm_lock_bottom_part3]
15 -51.266422 -16.798248 -66.920395 -179.999985 -0.000001 4.326176 85.957932
16 -51.266438 -16.798210 -66.920395 -179.999985 -0.000001 4.326176 85.957939
17 -51.266422 -16.798248 -66.920395 -179.999985 -0.000001 4.326176 85.957932
18 -51.266422 -16.798210 -66.920395 -179.999985 -0.000001 4.326176 85.957924
19 -51.266422 -16.798210 -66.920395 -179.999985 -0.000001 4.326176 85.957924
20 -51.266422 -16.798248 -66.920395 -179.999985 -0.000001 4.326176 85.957932
[arm_lock_bottom_part4]
15 -40.078083 -93.503136 -59.330063 -179.999985 -0.000000 1.322129 117.767326
16 -40.078102 -93.503113 -59.330063 -179.999985 -0.000000 1.322129 117.767326
17 -40.078083 -93.503136 -59.330063 -179.999985 -0.000000 1.322129 117.767326
18 -40.078102 -93.503113 -59.330063 -179.999985 -0.000000 1.322129 117.767326
19 -40.078102 -93.503113 -59.330063 -179.999985 -0.000000 1.322129 117.767326
20 -40.078083 -93.503136 -59.330063 -179.999985 -0.000000 1.322129 117.767326
[arm_lock_top_part1]
15 -47.532558 61.554451 78.379364 0.000000 -0.000000 -9.999999 110.415672
16 -47.532539 61.554489 78.379364 0.000000 -0.000000 -9.999999 110.415680
17 -47.532558 61.554451 78.379364 0.000000 -0.000000 -9.999999 110.415672
18 -47.532558 61.554489 78.379364 0.000000 -0.000000 -9.999999 110.415680
19 -47.532558 61.554489 78.379364 0.000000 -0.000000 -9.999999 110.415680
20 -47.532558 61.554451 78.379364 0.000000 -0.000000 -9.999999 110.415672
[arm_lock_top_part2]
15 -45.622673 13.709869 63.393555 0.000000 -0.000000 -7.722126 79.297745
16 -45.622673 13.709908 63.393555 0.000000 -0.000000 -7.722126 79.297745
17 -45.622673 13.709869 63.393555 0.000000 -0.000000 -7.722126 79.297745
18 -45.622673 13.709908 63.393555 0.000000 -0.000000 -7.722126 79.297745
19 -45.622673 13.709908 63.393555 0.000000 -0.000000 -7.722126 79.297745
20 -45.622673 13.709869 63.393555 0.000000 -0.000000 -7.722126 79.297745
[arm_lock_top_part3]
15 -43.788525 -73.747253 72.061615 0.000000 0.000000 -4.533067 112.022179
16 -43.788544 -73.747231 72.061615 0.000000 0.000000 -4.533067 112.022171
17 -43.788525 -73.747253 72.061615 0.000000 0.000000 -4.533067 112.022179
18 -43.788544 -73.747208 72.061615 0.000000 0.000000 -4.533067 112.022163
19 -43.788544 -73.747208 72.061615 0.000000 0.000000 -4.533067 112.022163
20 -43.788525 -73.747253 72.061615 0.000000 0.000000 -4.533067 112.022179
[front_lower_left_part1]
15 -46.798534 475.071014 -43.538895 -17.980034 0.000051 32.194077 479.351868
16 -46.798515 475.070984 -43.538895 -17.980034 0.000051 32.194073 479.351837
17 -46.798534 475.071014 -43.538895 -17.980034 0.000051 32.194077 479.351868
18 -46.798534 475.071045 -43.538895 -17.980034 0.000051 32.194077 479.351898
19 -46.798534 475.071045 -43.538895 -17.980036 0.000052 32.194084 479.351898
20 -46.798534 475.071014 -43.538895 -17.980034 0.000051 32.194077 479.351868
[front_lower_right_part1]
15 26.433447 475.070953 -43.538895 -17.167988 -0.000012 -27.317900 477.793640
16 26.433447 475.070984 -43.538742 -17.167982 -0.000012 -27.317896 477.793671
17 26.433447 475.070953 -43.538895 -17.167982 -0.000012 -27.317896 477.793640
18 26.433468 475.070984 -43.538742 -17.167982 -0.000012 -27.317894 477.793671
19 26.433468 475.070984 -43.538742 -17.167988 -0.000012 -27.317902 477.793671
20 26.433447 475.070953 -43.538895 -17.167982 -0.000012 -27.317894 477.793640
[front_top_left_part]
15 -47.897224 494.788879 7.030945 -0.000000 0.000003 -0.000001 497.151489
16 -47.897205 494.788910 7.030945 -0.000000 0.000003 -0.000001 497.151520
17 -47.897224 494.788879 7.030945 -0.000000 0.000003 -0.000001 497.151489
18 -47.897224 494.788910 7.030945 -0.000000 0.000003 -0.000001 497.151520
19 -47.897224 494.788910 7.030945 -0.000000 0.000003 -0.000001 497.151520
20 -47.897224 494.788879 7.030945 -0.000000 0.000003 -0.000001 497.151489
[front_top_right_part1]
15 27.532156 494.788879 7.031097 0.000000 -0.000000 -0.000000 495.604187
16 27.532156 494.788910 7.031097 0.000000 -0.000000 -0.000000 495.604218
17 27.532156 494.788879 7.031097 0.000000 -0.000000 -0.000000 495.604187
18 27.532139 494.788910 7.031097 0.000000 -0.000000 -0.000000 495.604218
19 27.532139 494.788910 7.031097 0.000000 -0.000000 -0.000000 495.604218
20 27.532156 494.788879 7.031097 0.000000 -0.000000 -0.000000 495.604187
[scope_part1]
15 -10.754318 87.338905 156.453094 -5.077278 -14.971363 1.314919 179.502960
16 -10.754318 87.338936 156.453094 -5.075164 -14.883163 1.306855 179.502960
17 -10.754318 87.338905 156.453094 -5.073041 -14.792187 1.298358 179.502960
18 -10.754299 87.338936 156.453094 -5.070821 -14.698870 1.289899 179.502960
19 -10.754299 87.338936 156.453094 -5.068615 -14.603644 1.281050 179.502960
20 -10.754318 87.338905 156.453094 -5.066413 -14.506931 1.272298 179.502960
[scope_part2]
15 -10.754318 82.597305 156.859894 -5.667355 30.032719 -2.843436 177.603470
16 -10.754299 82.597351 156.859894 -5.661517 29.930862 -2.831666 177.603500
17 -10.754318 82.597305 156.859894 -5.655536 29.825756 -2.819699 177.603470
18 -10.754299 82.597351 156.859894 -5.649390 29.717897 -2.807390 177.603500
19 -10.754299 82.597351 156.859894 -5.643245 29.607897 -2.794973 177.603500
20 -10.754318 82.597305 156.859894 -5.636994 29.496098 -2.782300 177.603470
[front_lower_left_part2]
15 -55.193558 141.618347 32.268372 0.000000 -0.000000 14.672032 155.381241
16 -55.193596 141.618393 32.268372 0.000000 -0.000000 14.585398 155.381302
17 -55.193558 141.618347 32.268372 0.000000 -0.000000 14.496278 155.381241
18 -55.193634 141.618408 32.268219 0.000000 -0.000000 14.405299 155.381317
19 -55.193634 141.618408 32.268219 0.000000 -0.000000 14.312614 155.381317
20 -55.193558 141.618347 32.268372 0.000000 -0.000000 14.218389 155.381241
[front_lower_left_part3]
15 -10.943909 108.509445 -11.125030 35.699844 -8.641751 -24.408203 109.625885
16 -10.943831 108.509445 -11.124877 35.706684 -8.609213 -24.453924 109.625862
17 -10.943831 108.509369 -11.124877 35.713749 -8.575490 -24.501436 109.625786
18 -10.943831 108.509483 -11.124877 35.721207 -8.539852 -24.551600 109.625893
19 -10.943831 108.509483 -11.125030 35.728619 -8.504208 -24.601748 109.625916
20 -10.943831 108.509445 -11.125030 35.736374 -8.467064 -24.653858 109.625877
[front_lower_right_part2]
15 55.193665 141.618195 32.268372 0.000000 0.000000 -18.492939 155.381149
16 55.193699 141.618195 32.268219 0.000000 0.000000 -18.426554 155.381134
17 55.193665 141.618195 32.268372 0.000000 0.000000 -18.358450 155.381149
18 55.193668 141.618195 32.268372 0.000000 0.000000 -18.289249 155.381149
19 55.193668 141.618195 32.268372 0.000000 0.000000 -18.218971 155.381149
20 55.193665 141.618195 32.268372 0.000000 0.000000 -18.148071 155.381149
[front_lower_right_part3]
15 10.943890 108.509445 -11.124725 35.248821 10.543335 21.702461 109.625854
16 10.943775 108.509521 -11.124877 35.255314 10.518658 21.737926 109.625931
17 10.944004 108.509483 -11.124725 35.262028 10.492963 21.774899 109.625900
18 10.943890 108.509628 -11.124725 35.269005 10.466437 21.813122 109.626038
19 10.943755 108.509590 -11.124725 35.276119 10.439016 21.852556 109.625992
20 10.943966 108.509369 -11.124725 35.283463 10.410925 21.892950 109.625786
[front_top_left_part2]
15 -86.807388 137.393097 57.270809 9.854475 0.479034 19.529510 172.314636
16 -86.621078 137.393570 57.260742 9.853688 0.493025 19.448864 172.217880
17 -86.430832 137.393875 57.250214 9.852941 0.507661 19.364759 172.119003
18 -86.237656 137.394409 57.239532 9.852172 0.522297 19.280649 172.018967
19 -86.042824 137.394791 57.228848 9.851318 0.537128 19.195236 171.918106
20 -85.847412 137.395248 57.218014 9.850527 0.551978 19.109520 171.817154
[front_top_left_part3]
15 -28.216400 149.657135 49.959793 -26.066055 -1.739912 -62.088661 160.279144
16 -28.216476 149.656830 49.959564 -26.064728 -1.761163 -62.132011 160.278809
17 -28.216362 149.656906 49.959564 -26.063341 -1.783121 -62.176891 160.278854
18 -28.216362 149.656906 49.959641 -26.061895 -1.805787 -62.223297 160.278870
19 -28.216362 149.656906 49.959641 -26.060387 -1.829112 -62.271053 160.278870
20 -28.216362 149.656738 49.959641 -26.058750 -1.853025 -62.319965 160.278717
[front_top_right_part2]
15 80.921936 137.570190 52.731171 8.066185 1.121575 -22.656307 168.090729
16 80.765907 137.569794 52.739864 8.067751 1.109468 -22.571016 168.018082
17 80.606232 137.569504 52.748566 8.069352 1.097069 -22.483707 167.943878
18 80.443840 137.569107 52.757568 8.070974 1.084479 -22.394846 167.868500
19 80.279533 137.568817 52.766567 8.072689 1.071688 -22.305069 167.792419
20 80.114403 137.568436 52.775574 8.074305 1.058904 -22.214664 167.715988
[front_top_right_part3]
15 28.216520 149.656982 49.959717 -25.944122 3.136963 64.954292 160.278992
16 28.216459 149.656982 49.959488 -25.942265 3.153974 64.989326 160.278915
17 28.216526 149.656906 49.959564 -25.940218 3.171678 65.025726 160.278885
18 28.216475 149.657059 49.959412 -25.938152 3.189947 65.063354 160.278961
19 28.216534 149.657059 49.959641 -25.935932 3.208795 65.102135 160.279053
20 28.216528 149.656906 49.959488 -25.933695 3.228282 65.142235 160.278854
